name ./resultDataOpenSim/trcMotMarkerGrf/sub09/grf-15-08.mot
datacolumns 19
datarows 10
range 1.39600000 1.43200000
endheader

                time	     ground_force_vx	     ground_force_vy	     ground_force_vz	     ground_force_px	     ground_force_py	     ground_force_pz	   l_ground_force_vx	   l_ground_force_vy	   l_ground_force_vz	   l_ground_force_px	   l_ground_force_py	   l_ground_force_pz	     ground_torque_x	     ground_torque_y	     ground_torque_z	   l_ground_torque_x	   l_ground_torque_y	   l_ground_torque_z	
          1.39600000	        -25.14971270	        598.71988954	          6.11292076	          1.02912590	          0.00000000	          0.00429601	          0.00000000	          0.00000000	          0.00000000	          0.00000000	          0.00000000	          0.00000000	          0.00000000	         -0.30879171	          0.00000000	          0.00000000	          0.00000000	          0.00000000	
          1.40000000	        -22.24883508	        587.20574242	          2.16785690	          1.03048553	          0.00000000	          0.00438365	          0.00000000	          0.00000000	          0.00000000	          0.00000000	          0.00000000	          0.00000000	          0.00000000	         -0.64240297	          0.00000000	          0.00000000	          0.00000000	          0.00000000	
          1.40400000	        -18.60476234	        575.32991453	         -2.14256430	          1.03166539	          0.00000000	          0.00451017	          0.00000000	          0.00000000	          0.00000000	          0.00000000	          0.00000000	          0.00000000	          0.00000000	         -0.98348459	          0.00000000	          0.00000000	          0.00000000	          0.00000000	
          1.40800000	        -14.37288217	        563.27401463	         -5.92648924	          1.03269117	          0.00000000	          0.00465152	          0.00000000	          0.00000000	          0.00000000	          0.00000000	          0.00000000	          0.00000000	          0.00000000	         -1.26729827	          0.00000000	          0.00000000	          0.00000000	          0.00000000	
          1.41200000	         -9.92458232	        551.24088268	         -8.48534265	          1.03360728	          0.00000000	          0.00478579	          0.00000000	          0.00000000	          0.00000000	          0.00000000	          0.00000000	          0.00000000	          0.00000000	         -1.44108888	          0.00000000	          0.00000000	          0.00000000	          0.00000000	
          1.41600000	         -5.74736704	        539.43289039	         -9.41702758	          1.03444683	          0.00000000	          0.00489390	          0.00000000	          0.00000000	          0.00000000	          0.00000000	          0.00000000	          0.00000000	          0.00000000	         -1.47272262	          0.00000000	          0.00000000	          0.00000000	          0.00000000	
          1.42000000	         -2.33294740	        528.04721232	         -8.65284894	          1.03526613	          0.00000000	          0.00495471	          0.00000000	          0.00000000	          0.00000000	          0.00000000	          0.00000000	          0.00000000	          0.00000000	         -1.35491285	          0.00000000	          0.00000000	          0.00000000	          0.00000000	
          1.42400000	         -0.04836745	        517.25580183	         -6.44964995	          1.03613993	          0.00000000	          0.00495553	          0.00000000	          0.00000000	          0.00000000	          0.00000000	          0.00000000	          0.00000000	          0.00000000	         -1.10505385	          0.00000000	          0.00000000	          0.00000000	          0.00000000	
          1.42800000	          0.97463740	        507.16798503	         -3.33000101	          1.03708319	          0.00000000	          0.00489998	          0.00000000	          0.00000000	          0.00000000	          0.00000000	          0.00000000	          0.00000000	          0.00000000	         -0.76120354	          0.00000000	          0.00000000	          0.00000000	          0.00000000	
          1.43200000	          0.87659873	        497.79601671	          0.03489857	          1.03809264	          0.00000000	          0.00480362	          0.00000000	          0.00000000	          0.00000000	          0.00000000	          0.00000000	          0.00000000	          0.00000000	         -0.37504577	          0.00000000	          0.00000000	          0.00000000	          0.00000000	
